<svg xmlns="http://www.w3.org/2000/svg" width="42" height="42" viewBox="0 0 42 42">
  <defs>
    <linearGradient id="favicon-a" x1="50%" x2="50%" y1="0%" y2="100%">
      <stop offset="0%" stop-color="#FFCE2B"/>
      <stop offset="4.652%" stop-color="#FEE383"/>
      <stop offset="29.846%" stop-color="#FFD034"/>
      <stop offset="73.224%" stop-color="#FFCE2B"/>
      <stop offset="100%" stop-color="#FFC400"/>
    </linearGradient>
  </defs>
  <g fill="none">
    <rect width="42" height="42" fill="url(#favicon-a)" rx="5"/>
    <g fill="#131211" transform="translate(7 13)">
      <path d="M1.90943868,0.193399173 L12.706717,6.94169811 C13.291201,7.30700061 13.4688827,8.07695469 13.1035802,8.66143868 C13.0031402,8.82214255 12.8674208,8.95786196 12.706717,9.05830189 L1.90943868,15.8066008 C1.32495469,16.1719033 0.555000611,15.9942216 0.189698117,15.4097377 C0.0657314672,15.211391 0,14.9821988 0,14.748299 L0,1.25170106 C0,0.562449692 0.558748632,0.0037010564 1.248,0.0037010564 C1.48189981,0.0037010564 1.71109204,0.069432524 1.90943868,0.193399173 Z"/>
      <rect width="15.6" height="3.6" x="13.2" y="12.2" rx="1.8"/>
    </g>
  </g>
</svg>
